<?xml version="1.0" encoding="UTF-8" standalone="no"?><svg xmlns:svg="http://www.w3.org/2000/svg" xmlns="http://www.w3.org/2000/svg" xmlns:xlink="http://www.w3.org/1999/xlink" version="1.0" width="64px" height="64px" viewBox="0 0 128 128" xml:space="preserve"><g><ellipse cx="64" cy="18.75" rx="6.25" ry="18.75" fill="#ffffff"/><ellipse cx="64" cy="18.75" rx="6.25" ry="18.75" fill="#ffffff" transform="rotate(30 64 64)"/><ellipse cx="64" cy="18.75" rx="6.25" ry="18.75" fill="#e5e5f3" transform="rotate(60 64 64)"/><ellipse cx="64" cy="18.75" rx="6.25" ry="18.75" fill="#cccce8" transform="rotate(90 64 64)"/><ellipse cx="64" cy="18.75" rx="6.25" ry="18.75" fill="#b2b2dc" transform="rotate(120 64 64)"/><ellipse cx="64" cy="18.75" rx="6.25" ry="18.75" fill="#9999d1" transform="rotate(150 64 64)"/><ellipse cx="64" cy="18.75" rx="6.25" ry="18.75" fill="#7f7fc5" transform="rotate(180 64 64)"/><ellipse cx="64" cy="18.75" rx="6.25" ry="18.75" fill="#6666b9" transform="rotate(210 64 64)"/><ellipse cx="64" cy="18.75" rx="6.25" ry="18.75" fill="#4c4cae" transform="rotate(240 64 64)"/><ellipse cx="64" cy="18.75" rx="6.25" ry="18.75" fill="#3333a2" transform="rotate(270 64 64)"/><ellipse cx="64" cy="18.75" rx="6.25" ry="18.75" fill="#191996" transform="rotate(300 64 64)"/><ellipse cx="64" cy="18.75" rx="6.25" ry="18.75" fill="#00008b" transform="rotate(330 64 64)"/><animateTransform attributeName="transform" type="rotate" values="0 64 64;30 64 64;60 64 64;90 64 64;120 64 64;150 64 64;180 64 64;210 64 64;240 64 64;270 64 64;300 64 64;330 64 64" calcMode="discrete" dur="1080ms" repeatCount="indefinite"></animateTransform></g></svg>